<?xml version="1.0" encoding="UTF-8"?>
<svg id="Layer_2" data-name="Layer 2" xmlns="http://www.w3.org/2000/svg" viewBox="0 0 22.71 30">
  <defs>
    <style>
      .cls-1 {
        fill: #a0c53a;
      }

      .cls-2 {
        fill: #fff;
      }
    </style>
  </defs>
  <g id="Layer_1-2" data-name="Layer 1">
    <g>
      <path class="cls-1" d="M22.38,24.95c-.33,1.16-.83,2.07-1.49,2.81-1.24,1.49-2.9,2.24-5.13,2.24-1.57,0-2.98-.41-4.06-1.24-1.08-.91-1.9-2.15-2.4-3.81h3.06c.25.66.75,1.24,1.33,1.57.66.41,1.33.58,2.07.58,1.24,0,2.24-.41,3.06-1.32.16-.25.33-.5.5-.83h3.06Z"/>
      <path class="cls-1" d="M.4,5.05c.33-1.16.83-2.07,1.49-2.81C3.14.75,4.79,0,7.03,0c1.57,0,2.98.41,4.06,1.24,1.08.91,1.9,2.15,2.4,3.81h-3.06c-.25-.66-.75-1.24-1.33-1.57-.66-.41-1.33-.58-2.07-.58-1.24,0-2.24.41-3.06,1.32-.16.25-.33.5-.5.83H.4Z"/>
      <path class="cls-1" d="M22.38,24.95c-.33,1.16-.83,2.07-1.49,2.81-1.24,1.49-2.9,2.24-5.13,2.24-1.57,0-2.98-.41-4.06-1.24-1.08-.91-1.9-2.15-2.4-3.81h3.06c.25.66.75,1.24,1.33,1.57.66.41,1.33.58,2.07.58,1.24,0,2.24-.41,3.06-1.32.16-.25.33-.5.5-.83h3.06Z"/>
      <path class="cls-1" d="M.4,5.05c.33-1.16.83-2.07,1.49-2.81C3.14.75,4.79,0,7.03,0c1.57,0,2.98.41,4.06,1.24,1.08.91,1.9,2.15,2.4,3.81h-3.06c-.25-.66-.75-1.24-1.33-1.57-.66-.41-1.33-.58-2.07-.58-1.24,0-2.24.41-3.06,1.32-.16.25-.33.5-.5.83H.4Z"/>
      <path class="cls-2" d="M13.1,14v-.28c0-1.65,1.41-3.06,3.06-3.06h0c1.74,0,3.15,1.41,3.15,3.06v8.69h3.39v-8.61c0-3.56-2.9-6.54-6.54-6.54h0c-3.56,0-6.54,2.98-6.54,6.54v.2h3.48,0Z"/>
      <path class="cls-2" d="M3.48,8.05v8.15c0,1.74,1.41,3.14,3.06,3.14h0c1.74,0,3.15-1.41,3.15-3.14v-.14h3.39v.05c0,3.64-2.9,6.54-6.54,6.54h0c-3.56,0-6.54-2.9-6.54-6.54v-8.07h3.48Z"/>
    </g>
  </g>
</svg>