<?xml version="1.0" encoding="UTF-8"?>
<svg id="Layer_2" data-name="Layer 2" xmlns="http://www.w3.org/2000/svg" viewBox="0 0 677.04 156.45">
  <defs>
    <style>
      .cls-1 {
        fill: #a2c62e;
      }

      .cls-2 {
        fill: #c7c6c6;
      }
    </style>
  </defs>
  <g id="Gris">
    <g>
      <g>
        <g>
          <g>
            <path class="cls-1" d="M458.92,69.38c-1.3-5.18-3.89-9.07-7.77-11.66-3.46-2.6-8.21-3.89-13.82-3.89-4.75,0-9.07,1.29-12.52,4.32-3.89,3.03-6.47,6.48-7.77,11.23h41.88ZM416.18,83.63c.86,5.62,3.02,10.37,6.91,13.39,3.88,3.02,8.63,4.75,14.68,4.75,3.89,0,7.77-.87,10.79-2.59,3.45-1.73,5.61-3.88,7.77-6.91h19.43c-3.46,8.21-8.21,14.68-14.68,19.43-6.48,4.75-14.25,6.91-22.89,6.91-5.61,0-10.79-.87-15.98-3.02-4.75-1.73-9.07-4.75-12.95-9.07-3.45-3.46-6.47-8.21-8.64-12.96-1.73-5.18-3.02-9.93-3.02-15.54,0-5.18,1.29-10.37,3.02-15.11,1.73-4.76,4.75-9.07,8.21-12.52,3.89-4.32,8.2-7.78,13.38-9.93,4.75-2.16,9.93-3.45,15.11-3.45,6.91,0,12.96,1.73,19,4.75,5.61,3.02,10.79,7.34,14.68,12.96,2.59,3.02,4.32,6.91,5.61,11.23,1.3,3.88,1.73,8.63,1.73,13.81v3.88h-62.18Z"/>
            <path class="cls-1" d="M358.55,94.42V8.53h18.13v31.05h11.67v15.98h-11.67v38.86c0,4.32,1.73,6.48,6.48,6.48h5.19v15.98h-6.91c-12.09,0-22.89-6.91-22.89-22.46Z"/>
            <path class="cls-1" d="M525.5,37.86c19,0,34.54,12.95,38.86,30.22h-18.57c-3.46-7.34-11.23-12.52-20.29-12.52-12.52,0-22.46,9.93-22.46,22.45s9.93,22.46,22.46,22.46c9.07,0,16.84-5.18,20.29-12.52h18.57c-4.32,17.27-19.86,30.22-38.86,30.22-22.02,0-40.16-18.13-40.16-40.16s18.14-40.15,40.16-40.15Z"/>
            <path class="cls-1" d="M591.15,116.88v-45.34c0-8.63,7.34-15.98,16.41-15.98h0c8.64,0,15.97,7.34,15.97,15.98v45.34h18.14v-44.9c0-18.57-15.54-34.11-34.11-34.11h0c-6.05,0-11.66,1.72-16.41,4.32V8.53h-17.7v108.34h17.7Z"/>
            <path class="cls-1" d="M256.58,130.11c-1.73,6.04-4.32,10.79-7.78,14.68-6.48,7.77-15.11,11.66-26.77,11.66-8.21,0-15.54-2.16-21.17-6.48-5.61-4.75-9.92-11.23-12.52-19.86h15.98c1.3,3.45,3.89,6.47,6.91,8.2,3.46,2.16,6.91,3.02,10.8,3.02,6.48,0,11.66-2.16,15.98-6.9.85-1.29,1.72-2.6,2.59-4.32h15.98Z"/>
            <path class="cls-1" d="M141.98,26.34c1.73-6.04,4.32-10.79,7.78-14.68,6.48-7.77,15.11-11.66,26.77-11.66,8.21,0,15.54,2.16,21.17,6.48,5.61,4.75,9.92,11.23,12.52,19.86h-15.98c-1.3-3.45-3.89-6.47-6.91-8.2-3.46-2.16-6.91-3.02-10.8-3.02-6.48,0-11.66,2.16-15.98,6.9-.85,1.29-1.72,2.6-2.59,4.32h-15.98Z"/>
          </g>
          <g>
            <path class="cls-1" d="M458.92,69.38c-1.3-5.18-3.89-9.07-7.77-11.66-3.46-2.6-8.21-3.89-13.82-3.89-4.75,0-9.07,1.29-12.52,4.32-3.89,3.03-6.47,6.48-7.77,11.23h41.88ZM416.18,83.63c.86,5.62,3.02,10.37,6.91,13.39,3.88,3.02,8.63,4.75,14.68,4.75,3.89,0,7.77-.87,10.79-2.59,3.45-1.73,5.61-3.88,7.77-6.91h19.43c-3.46,8.21-8.21,14.68-14.68,19.43-6.48,4.75-14.25,6.91-22.89,6.91-5.61,0-10.79-.87-15.98-3.02-4.75-1.73-9.07-4.75-12.95-9.07-3.45-3.46-6.47-8.21-8.64-12.96-1.73-5.18-3.02-9.93-3.02-15.54,0-5.18,1.29-10.37,3.02-15.11,1.73-4.76,4.75-9.07,8.21-12.52,3.89-4.32,8.2-7.78,13.38-9.93,4.75-2.16,9.93-3.45,15.11-3.45,6.91,0,12.96,1.73,19,4.75,5.61,3.02,10.79,7.34,14.68,12.96,2.59,3.02,4.32,6.91,5.61,11.23,1.3,3.88,1.73,8.63,1.73,13.81v3.88h-62.18Z"/>
            <path class="cls-1" d="M358.55,94.42V8.53h18.13v31.05h11.67v15.98h-11.67v38.86c0,4.32,1.73,6.48,6.48,6.48h5.19v15.98h-6.91c-12.09,0-22.89-6.91-22.89-22.46Z"/>
            <path class="cls-1" d="M525.5,37.86c19,0,34.54,12.95,38.86,30.22h-18.57c-3.46-7.34-11.23-12.52-20.29-12.52-12.52,0-22.46,9.93-22.46,22.45s9.93,22.46,22.46,22.46c9.07,0,16.84-5.18,20.29-12.52h18.57c-4.32,17.27-19.86,30.22-38.86,30.22-22.02,0-40.16-18.13-40.16-40.16s18.14-40.15,40.16-40.15Z"/>
            <path class="cls-1" d="M591.15,116.88v-45.34c0-8.63,7.34-15.98,16.41-15.98h0c8.64,0,15.97,7.34,15.97,15.98v45.34h18.14v-44.9c0-18.57-15.54-34.11-34.11-34.11h0c-6.05,0-11.66,1.72-16.41,4.32V8.53h-17.7v108.34h17.7Z"/>
            <path class="cls-1" d="M256.58,130.11c-1.73,6.04-4.32,10.79-7.78,14.68-6.48,7.77-15.11,11.66-26.77,11.66-8.21,0-15.54-2.16-21.17-6.48-5.61-4.75-9.92-11.23-12.52-19.86h15.98c1.3,3.45,3.89,6.47,6.91,8.2,3.46,2.16,6.91,3.02,10.8,3.02,6.48,0,11.66-2.16,15.98-6.9.85-1.29,1.72-2.6,2.59-4.32h15.98Z"/>
            <path class="cls-1" d="M141.98,26.34c1.73-6.04,4.32-10.79,7.78-14.68,6.48-7.77,15.11-11.66,26.77-11.66,8.21,0,15.54,2.16,21.17,6.48,5.61,4.75,9.92,11.23,12.52,19.86h-15.98c-1.3-3.45-3.89-6.47-6.91-8.2-3.46-2.16-6.91-3.02-10.8-3.02-6.48,0-11.66,2.16-15.98,6.9-.85,1.29-1.72,2.6-2.59,4.32h-15.98Z"/>
          </g>
        </g>
        <path class="cls-2" d="M39.73,32.75v15.98h-12.95v68.15H9.5V48.73H0v-15.98h8.64v-2.16c0-8.21,2.16-14.25,6.91-18.14,4.32-4.32,11.23-6.05,20.29-6.05h3.89v15.98h-1.3c-4.32,0-6.91.86-8.64,2.16-1.73,1.29-2.59,3.45-2.59,6.48v1.72h12.52Z"/>
        <path class="cls-2" d="M67.55,77.58c0,7.34,2.16,12.96,6.04,17.27,3.88,3.89,9.07,6.04,15.98,6.04,6.47,0,11.66-2.16,15.97-6.48,3.89-4.32,5.62-9.93,5.62-17.27,0-6.48-1.73-11.66-6.04-15.97-4.32-4.32-9.5-6.48-15.54-6.48-6.48,0-11.67,2.16-15.98,6.48-3.89,4.32-6.04,9.93-6.04,16.41ZM48.98,77.58c0-5.18.86-10.36,3.02-15.11,2.15-5.18,4.74-9.5,8.63-13.39,3.89-3.88,8.2-6.9,12.96-8.63,5.18-2.16,9.92-3.45,15.54-3.45,5.18,0,10.35,1.29,15.11,3.02,4.74,1.73,9.07,4.75,12.96,8.21,4.31,3.88,7.33,8.2,9.5,13.38,2.16,5.18,3.46,10.37,3.46,15.54,0,6.05-1.3,11.66-3.02,16.41-1.73,4.75-4.76,9.07-8.64,12.96-3.88,4.32-8.2,7.34-12.96,9.07-5.18,2.16-10.35,3.02-16.4,3.02-5.62,0-10.8-.87-15.54-3.02-4.76-2.16-9.5-5.18-13.39-9.07-3.46-4.32-6.48-8.64-8.2-13.39-2.17-4.75-3.02-9.93-3.02-15.54Z"/>
        <path class="cls-2" d="M330.35,8.53v36.23c-7.19-4.32-14.38-6.9-22.59-6.9-22.45,0-40.22,18.13-40.22,40.15s17.58,40.16,40.03,40.16,40.03-18.13,40.03-40.16V8.53h-17.26ZM307.63,100.47c-12.52,0-22.88-9.93-22.88-22.46s10.36-22.45,22.88-22.45,22.46,9.93,22.46,22.45-9.93,22.46-22.46,22.46Z"/>
        <path class="cls-2" d="M208.21,73v-1.46c0-8.63,7.35-15.98,15.98-15.98h0c9.07,0,16.41,7.34,16.41,15.98v45.34h17.7v-44.9c0-18.57-15.11-34.11-34.11-34.11h0c-18.57,0-34.11,15.54-34.11,34.11v1.02h18.13Z"/>
        <path class="cls-2" d="M158.02,42v42.49c0,9.07,7.35,16.4,15.98,16.4h0c9.07,0,16.41-7.34,16.41-16.4v-.72h17.7v.28c0,19-15.11,34.11-34.11,34.11h0c-18.57,0-34.11-15.11-34.11-34.11v-42.06h18.13Z"/>
      </g>
      <path class="cls-2" d="M677.04,24.77c0,9.33-7.32,16.65-16.85,16.65s-16.95-7.32-16.95-16.65,7.52-16.45,16.95-16.45,16.85,7.32,16.85,16.45ZM647.46,24.77c0,7.32,5.42,13.14,12.84,13.14s12.54-5.82,12.54-13.04-5.32-13.24-12.64-13.24-12.74,5.92-12.74,13.14ZM657.59,33.4h-3.81v-16.45c1.5-.3,3.61-.5,6.32-.5,3.11,0,4.51.5,5.72,1.2.9.7,1.6,2.01,1.6,3.61,0,1.81-1.4,3.21-3.41,3.81v.2c1.6.6,2.51,1.81,3.01,4.01.5,2.51.8,3.51,1.2,4.11h-4.11c-.5-.6-.8-2.11-1.3-4.01-.3-1.81-1.3-2.61-3.41-2.61h-1.81v6.62ZM657.69,24.07h1.81c2.11,0,3.81-.7,3.81-2.41,0-1.5-1.1-2.51-3.51-2.51-1,0-1.7.1-2.11.2v4.71Z"/>
    </g>
  </g>
</svg>