<?xml version="1.0" encoding="UTF-8"?>
<svg id="Layer_2" xmlns="http://www.w3.org/2000/svg" version="1.1" viewBox="0 0 296.2 106.5">
  <!-- Generator: Adobe Illustrator 30.3.0, SVG Export Plug-In . SVG Version: 2.1.1 Build 126)  -->
  <defs>
    <style>
      .st0 {
        fill: #fff;
      }
    </style>
  </defs>
  <g id="Layer_1-2">
    <g>
      <path class="st0" d="M115.8,93.3c-1.5,0-2.8.6-3.6,1.9-1.3-2.3-5-2.6-6.8-.7l-.2-.9h-3.6v12.3h3.9v-7.3c0-1.2,1-1.9,2-1.9,1,0,1.8.8,1.8,1.9v7.3h3.8v-7.3c0-1.2,1-2,2-1.9,1.2,0,1.9.9,1.9,2.1v7.2h3.7c0-2.9,0-5.7,0-8.4-.1-2.7-2.2-4.3-4.8-4.2Z"/>
      <path class="st0" d="M147.6,94c-2.1-1-4.3-.8-6.2.5v-4.9c0,0-3.7,0-3.7,0v16.4h3.4s.2-.8.2-.8c2.6,2.1,6.5,1.5,8.5-1.4,2.1-3,1.6-8-2.3-9.9h0ZM144,103c-1.7-.1-2.9-1.7-2.7-3.5.2-1.6,1.5-2.8,3.1-2.7,1.6,0,3,1.3,2.9,3.1,0,2-1.5,3.2-3.3,3.1h0Z"/>
      <path class="st0" d="M211.6,94.8c-.9-1.1-2.4-1.6-4-1.4-2.9.2-5.2,2.4-5.6,5.3-.4,2.4.3,4.9,2.2,6.4,2.1,1.8,5.3,1.8,7.5.1l.2.8h3.6v-12.3h-3.7c0,0-.2,1.1-.2,1.1h0ZM208.7,102.9c-1.7,0-3.1-1.4-3.1-3.1s1.4-3.1,3.1-3.1,3.1,1.4,3.1,3.1-1.4,3.1-3.1,3.1Z"/>
      <path class="st0" d="M181.4,93.7v1.3c-.4-.4-.8-.9-1.4-1.2-3-1.3-6.5,0-7.9,3.1-1.1,2.5-.8,5.4,1,7.5,2,2.3,6.2,2.8,8.2.6l.3,1h3.6s0-12.3,0-12.3h-3.7s0,0,0,0ZM178.3,103c-1.7,0-3.1-1.4-3.1-3.1s1.4-3.1,3.1-3.1,3.1,1.4,3.1,3.1-1.4,3.1-3.1,3.1Z"/>
      <path class="st0" d="M129.2,93.2c-3.7,0-6.7,3-6.7,6.7s3,6.7,6.7,6.7,6.7-3,6.7-6.7-3-6.7-6.7-6.7ZM129.4,102.9c-1.6.1-3-1.1-3.2-2.7-.2-1.7,1-3.2,2.6-3.3,1.7-.2,3.2,1,3.3,2.8.1,1.7-1.1,3.1-2.7,3.3h0Z"/>
      <path class="st0" d="M94.8,93.4c-1.3,0-2.6.2-3.5,1.3l-.2-1h-3.5v12.3s3.8,0,3.8,0v-7.5c0-1.3,1.4-1.8,2.4-1.7,1.1.2,1.6,1.1,1.6,2.2v7h3.8c0-3,.1-5.8,0-8.7-.1-2.4-2-4-4.3-4h0Z"/>
      <rect class="st0" x="80.8" y="89.6" width="4.1" height="16.4"/>
      <rect class="st0" x="159.4" y="89.6" width="3.9" height="16.4"/>
      <path class="st0" d="M191.2,94.7v-1c-.1,0-3.6,0-3.6,0v12.3h3.8v-7.2c0-1.3,1.5-1.9,2.8-1.7v-3.8c-1.2,0-2.4.4-3.1,1.4h0Z"/>
      <rect class="st0" x="165.7" y="93.7" width="3.8" height="12.3"/>
      <rect class="st0" x="196.2" y="93.7" width="3.8" height="12.3"/>
      <rect class="st0" x="153" y="93.7" width="3.9" height="12.3" transform="translate(-.4 .6) rotate(-.2)"/>
      <rect class="st0" x="196.1" y="89.6" width="3.9" height="2.8"/>
      <rect class="st0" x="165.7" y="89.6" width="3.9" height="2.7"/>
      <rect class="st0" x="153" y="89.6" width="3.9" height="2.8"/>
      <path class="st0" d="M178.2,75.7c.4,1.7.6,3.2.8,4.9h11.1v-42.1s-11.6,0-11.6,0v4.7c-2.6-2.9-5.6-4.6-9.2-5.2-3-.5-5.9-.5-8.9,0-7.5,1.4-13.6,6.9-15.6,14.3-1.2,4.6-1.2,9.3-.1,13.9,1.6,6.6,6.3,11.9,12.7,14.2,7.1,2.6,16.3,1.7,21-4.9h0ZM167,70.7c-6.2,0-11.1-5-11.1-11.1s5-11.1,11.1-11.1,11.1,5,11.1,11.1-5,11.1-11.1,11.1Z"/>
      <path class="st0" d="M284.6,38.6v4.7c-4.4-5-9.9-6-16.2-5.4-5.8.5-11,3.5-14.4,8.1-1.8,2.5-3,5-3.6,8-1.5,7.6-.3,15.5,5.1,21.4,3.4,3.8,8.1,5.9,13.2,6.4,3.4.3,6.6,0,9.7-1.3,2.5-1.1,4.5-2.8,6.1-4.9l.6,5.1h11.1v-42h-11.6ZM273.2,70.7c-6.2,0-11.1-5-11.1-11.2s5-11.2,11.1-11.2,11.1,5,11.1,11.2-5,11.2-11.1,11.2Z"/>
      <path class="st0" d="M239,70.6c-.9-.2-1.7-.6-2.4-1.3-.8-1.1-1.1-2.3-1.2-3.7v-16.5s10.7,0,10.7,0v-10.4h-10.6v-11.6l-12.3,1.3v10.3h-7.4v10.4h7.4v16.8c.2,4.8,1.3,9.9,5.1,13,5.3,4.2,13.9,3.4,19.8,1l-2.8-10.3c-2.1.9-4.1,1.2-6.3.9h0Z"/>
      <rect class="st0" x="198.3" y="21.1" width="12.2" height="59.5"/>
      <polygon class="st0" points="144.2 80.6 129.8 59.5 143.4 38.6 128.8 38.6 121.6 51 114.5 38.6 99.7 38.7 113.4 59.5 99 80.6 113.9 80.7 121.6 68.1 129.3 80.6 144.2 80.6"/>
      <path class="st0" d="M90,68.1c-4.8,3.4-11.1,4.3-16.5,2.3-3-1.1-5-3.4-5.8-6.5h31c.7-7.2.7-13.5-3.9-19.2-5.4-6.5-14.9-7.9-22.8-6.3-8.4,1.6-15,8.2-16.4,16.7-1.4,8.4.9,17.5,8.1,22.6,4.8,3.4,10.4,4.5,16.3,4.4,6.2-.2,12.2-2,16.9-6.3l-6.9-7.6h0ZM83.2,49.3c2.3,1,3.9,2.8,4.4,5.5h-19.9c2.1-6.7,9.8-7.7,15.5-5.5Z"/>
      <path class="st0" d="M42.1,49.4l1.2-.7c2.8-1.6,5.1-4.1,6-7.3,1.6-5.7-.1-11.9-4.7-15.7-2.3-2-5.1-3.1-8-3.8-2.1-.3-4.1-.8-6.4-.8H0v59.5h30.9c2.6,0,5-.4,7.5-.9,6.6-1.7,11.7-5.8,13-12.7,1.5-7.6-1.8-14.8-9.3-17.6h0ZM13.1,32.6h16.8c1.4.1,2.7.4,3.9.9,2,.9,3.1,2.7,3.2,4.9,0,4.3-3.8,5.6-7.4,5.8H13.1v-11.6ZM38,62.6c-.2,5.1-4.8,6.5-9,6.4h-15.9v-13.7h16.8c1.6,0,3,.3,4.4.9,2.5,1.1,4,3.5,3.9,6.4h0Z"/>
      <circle class="st0" cx="25.9" cy="5.8" r="5.8"/>
    </g>
  </g>
  <rect class="st0" x="-23.8" y="75.1" width="17.3" height="17.3"/>
  <g>
    <path class="st0" d="M-113.8,39.7v-10.6h-10.6v-10.6h-67.7v10.6h-10.6v10.6h-10.6v67.7h10.6v10.6h10.6v10.6h67.7v-10.6h10.6v-10.6h10.6V39.7h-10.6ZM-162.4,25.7h13v13h-13v-13ZM-126.6,73.5h-10.6v4.6h10.6v27h-10.6v10.6h-48.2V46.5h48.2v10.6h10.6v16.5Z"/>
    <g>
      <rect class="st0" x="-168.8" y="84.1" width="25.8" height="15.2"/>
      <rect class="st0" x="-168.8" y="62.9" width="25.8" height="4.6"/>
    </g>
  </g>
</svg>