<?xml version="1.0" encoding="UTF-8"?>
<svg id="Layer_2" data-name="Layer 2" xmlns="http://www.w3.org/2000/svg" viewBox="0 0 296.22 106.54">
  <defs>
    <style>
      .cls-1 {
        fill: #fff;
      }
    </style>
  </defs>
  <g id="Layer_1-2" data-name="Layer 1">
    <g>
      <path class="cls-1" d="M115.79,93.34c-1.51.08-2.77.57-3.64,1.95-1.34-2.31-5.01-2.63-6.82-.67l-.2-.92h-3.61s.06,12.27.06,12.27h3.82s.04-7.32.04-7.32c0-1.18.95-1.95,1.96-1.92.99.03,1.8.76,1.81,1.92l.02,7.31h3.74s.01-7.3.01-7.3c0-1.21,1.01-2,2.01-1.95,1.15.06,1.9.89,1.9,2.1v7.18s3.73-.01,3.73-.01c.02-2.91.08-5.64-.06-8.43-.14-2.66-2.23-4.34-4.77-4.21Z"/>
      <path class="cls-1" d="M147.57,93.95c-2.06-.98-4.31-.83-6.17.51l-.06-4.88-3.61.03v16.37s3.39.04,3.39.04l.25-.8c2.65,2.06,6.54,1.47,8.5-1.39,2.07-3.03,1.6-8.02-2.29-9.88ZM143.99,102.97c-1.71-.12-2.89-1.68-2.7-3.52.17-1.62,1.52-2.75,3.05-2.67,1.64.08,2.96,1.28,2.95,3.11,0,1.98-1.51,3.2-3.29,3.08Z"/>
      <path class="cls-1" d="M211.65,94.77c-.92-1.08-2.44-1.57-3.98-1.45-2.92.23-5.17,2.44-5.64,5.33-.38,2.39.3,4.86,2.2,6.44,2.13,1.77,5.28,1.75,7.48.11l.18.77h3.6s0-12.28,0-12.28l-3.66-.05-.19,1.12ZM208.74,102.94c-1.7,0-3.08-1.38-3.08-3.08s1.38-3.08,3.08-3.08,3.08,1.38,3.08,3.08-1.38,3.08-3.08,3.08Z"/>
      <path class="cls-1" d="M181.37,93.68l-.03,1.29c-.34-.45-.76-.91-1.33-1.16-3.03-1.34-6.53.06-7.88,3.12-1.09,2.46-.8,5.39.97,7.48,1.99,2.34,6.19,2.85,8.22.58l.26,1.01,3.56-.02-.04-12.27-3.74-.03ZM178.32,102.95c-1.71,0-3.09-1.38-3.09-3.09s1.39-3.09,3.09-3.09,3.09,1.38,3.09,3.09-1.39,3.09-3.09,3.09Z"/>
      <path class="cls-1" d="M129.19,93.19c-3.69,0-6.68,2.99-6.68,6.67s2.99,6.67,6.68,6.67,6.68-2.99,6.68-6.67-2.99-6.67-6.68-6.67ZM129.45,102.89c-1.6.12-3.03-1.06-3.2-2.73-.18-1.71.98-3.15,2.58-3.35,1.69-.21,3.19.99,3.3,2.82.11,1.74-1.08,3.14-2.69,3.26Z"/>
      <path class="cls-1" d="M94.8,93.35c-1.33.02-2.58.25-3.51,1.33l-.15-.99h-3.53s-.02,12.27-.02,12.27h3.83s.08-7.54.08-7.54c.01-1.34,1.35-1.85,2.31-1.7,1.12.17,1.59,1.09,1.59,2.25v7.02s3.75-.02,3.75-.02c.02-2.97.11-5.76-.04-8.64-.13-2.42-2-4.02-4.32-3.99Z"/>
      <rect class="cls-1" x="80.82" y="89.57" width="4.13" height="16.4"/>
      <rect class="cls-1" x="159.36" y="89.57" width="3.86" height="16.42"/>
      <path class="cls-1" d="M191.16,94.71l-.13-1.03-3.43.02.05,12.26h3.79s.06-7.2.06-7.2c.01-1.32,1.48-1.9,2.79-1.71l.07-3.76c-1.25-.05-2.49.4-3.19,1.41Z"/>
      <rect class="cls-1" x="165.7" y="93.68" width="3.83" height="12.31"/>
      <rect class="cls-1" x="196.18" y="93.69" width="3.83" height="12.31"/>
      <rect class="cls-1" x="152.98" y="93.69" width="3.86" height="12.31" transform="translate(-.37 .58) rotate(-.21)"/>
      <rect class="cls-1" x="196.14" y="89.63" width="3.86" height="2.75"/>
      <rect class="cls-1" x="165.66" y="89.61" width="3.86" height="2.74"/>
      <rect class="cls-1" x="152.99" y="89.61" width="3.89" height="2.75"/>
      <path class="cls-1" d="M178.17,75.68c.42,1.68.6,3.25.79,4.95h11.07s.02-42.06.02-42.06h-11.64s-.14,4.72-.14,4.72c-2.44-2.88-5.46-4.62-9.08-5.23-2.97-.5-5.91-.49-8.9.07-7.54,1.41-13.65,6.91-15.65,14.33-1.24,4.58-1.22,9.32-.11,13.9,1.6,6.62,6.25,11.92,12.66,14.23,7.09,2.55,16.27,1.7,20.99-4.91ZM166.97,70.71c-6.16,0-11.15-4.99-11.15-11.14s4.99-11.14,11.15-11.14,11.15,4.99,11.15,11.14-4.99,11.14-11.15,11.14Z"/>
      <path class="cls-1" d="M284.6,38.55l-.07,4.72c-4.29-4.96-9.85-6.03-16.15-5.44-5.77.54-10.95,3.47-14.35,8.13-1.78,2.45-2.99,4.98-3.58,7.98-1.49,7.58-.27,15.49,5.07,21.37,3.42,3.77,8.13,5.94,13.19,6.45,3.36.34,6.59,0,9.68-1.31,2.53-1.07,4.52-2.76,6.12-4.92l.6,5.05h11.12s-.01-42.03-.01-42.03h-11.61ZM273.18,70.72c-6.16,0-11.15-4.99-11.15-11.15s4.99-11.15,11.15-11.15,11.15,4.99,11.15,11.15-4.99,11.15-11.15,11.15Z"/>
      <path class="cls-1" d="M239.01,70.64c-.92-.23-1.72-.62-2.36-1.28-.75-1.11-1.11-2.28-1.18-3.67l.03-16.53,10.64.03v-10.38s-10.57-.05-10.57-.05v-11.6s-12.32,1.33-12.32,1.33v10.3s-7.43,0-7.43,0v10.39s7.4,0,7.4,0v16.82c.17,4.76,1.26,9.93,5.12,13,5.29,4.22,13.87,3.36,19.82,1.03l-2.84-10.27c-2.07.86-4.15,1.23-6.31.88Z"/>
      <rect class="cls-1" x="198.31" y="21.13" width="12.23" height="59.54"/>
      <polygon class="cls-1" points="144.16 80.64 129.85 59.48 143.42 38.64 128.79 38.61 121.56 51.02 114.53 38.63 99.67 38.65 113.38 59.5 99 80.62 113.86 80.67 121.57 68.11 129.32 80.64 144.16 80.64"/>
      <path class="cls-1" d="M89.99,68.08c-4.82,3.44-11.1,4.31-16.55,2.31-2.98-1.09-5.02-3.4-5.8-6.47l30.97-.04c.68-7.13.71-13.44-3.92-19.21-5.43-6.53-14.87-7.86-22.76-6.34-8.44,1.62-14.96,8.23-16.37,16.68-1.4,8.41.92,17.51,8.14,22.63,4.83,3.43,10.36,4.51,16.26,4.36,6.21-.16,12.25-2.04,16.94-6.3l-6.93-7.62ZM83.24,49.29c2.26,1.02,3.92,2.75,4.4,5.5l-19.9.03c2.12-6.68,9.76-7.77,15.5-5.53Z"/>
      <path class="cls-1" d="M42.11,49.43l1.23-.7c2.85-1.62,5.12-4.08,6.04-7.3,1.64-5.69-.14-11.89-4.68-15.69-2.35-1.97-5.09-3.09-8.04-3.84-2.14-.34-4.12-.8-6.35-.8H0s0,59.52,0,59.52h30.86c2.6,0,4.98-.37,7.49-.88,6.61-1.69,11.68-5.79,13.01-12.72,1.46-7.6-1.84-14.76-9.26-17.59ZM13.08,32.62h16.77c1.4.13,2.66.39,3.9.93,1.95.92,3.11,2.69,3.15,4.94.07,4.34-3.8,5.63-7.38,5.76l-16.44-.02v-11.61ZM38.05,62.62c-.23,5.07-4.79,6.46-9.04,6.38l-15.93-.06v-13.63s16.76.01,16.76.01c1.56.04,2.98.26,4.35.9,2.52,1.13,4,3.52,3.87,6.39Z"/>
      <ellipse class="cls-1" cx="25.88" cy="5.76" rx="5.76" ry="5.76"/>
    </g>
  </g>
</svg>