<?xml version="1.0" encoding="UTF-8"?>
<svg id="Layer_2" data-name="Layer 2" xmlns="http://www.w3.org/2000/svg" viewBox="0 0 503.73 136.81">
  <defs>
    <style>
      .cls-1 {
        fill: #fff;
        fill-rule: evenodd;
      }
    </style>
  </defs>
  <g id="Layer_1-2" data-name="Layer 1">
    <g>
      <path class="cls-1" d="M397.72,9.6c0-4.39-2.93-8.04-7.31-8.04h-10.97c-4.39,0-8.04,3.66-8.04,8.04v117.71c0,4.39,3.65,8.04,8.04,8.04h10.97c4.39,0,7.31-3.66,7.31-8.04V9.6h0Z"/>
      <path class="cls-1" d="M412.34,12.52v5.85c0,2.19,2.19,4.39,4.39,4.39h77.5c3.65,0,6.58-2.93,6.58-6.58V6.67c0-3.66-2.93-7.31-6.58-6.58,0,0-75.3,7.31-77.5,7.31-2.93.73-4.39,2.93-4.39,5.12h0Z"/>
      <path class="cls-1" d="M349.47,135.35c-19.74,0-31.44-14.62-31.44-31.44v-46.79h-5.85c-2.93,0-5.12-2.93-5.12-5.85v-7.31c0-2.93,2.19-5.85,5.12-5.85h5.85V9.6c0-4.39,2.92-8.04,7.31-8.04h10.97c3.66,0,7.31,3.66,7.31,8.04v28.51h16.82c3.66,0,5.85,2.92,5.85,5.85v7.31c0,2.92-2.19,5.85-5.85,5.85h-16.82v43.87c0,8.04,5.12,13.89,14.62,13.89h1.46c2.92,0,5.85,2.92,5.85,5.85v8.77c0,2.92-2.93,5.85-5.85,5.85h-10.24Z"/>
      <path class="cls-1" d="M216.41,85.63c0-25.59-14.62-50.45-48.25-50.45-31.44,0-48.98,24.13-48.98,50.45s18.28,51.18,48.98,51.18c20.47,0,40.94-10.97,44.6-28.51.73-2.19-.73-5.85-4.39-5.85h-14.62c-2.93,0-5.12,1.46-6.58,3.65-3.66,5.85-10.24,9.51-19.01,9.51-13.16,0-21.93-10.24-22.66-21.93h62.88c5.85,0,8.04-2.92,8.04-8.04h0ZM145.49,74.67c.73-10.97,10.97-19.74,22.66-19.74,10.97,0,21.2,8.77,21.93,19.74h-44.6Z"/>
      <path class="cls-1" d="M503.73,85.63c0-25.59-14.62-50.45-48.98-50.45-31.44,0-48.98,24.13-48.98,50.45s19.01,51.18,48.98,51.18c21.2,0,41.67-10.97,45.33-28.51.73-2.19-.73-5.85-4.39-5.85h-14.62c-2.93,0-5.12,1.46-6.58,3.65-4.39,5.85-10.24,9.51-19.74,9.51-12.43,0-21.93-10.24-22.66-21.93h62.88c5.85,0,8.77-2.92,8.77-8.04h0ZM432.81,74.67c.73-10.97,10.24-19.74,21.93-19.74s21.93,8.77,22.66,19.74h-44.6Z"/>
      <path class="cls-1" d="M296.83,3.02H92.12c-4.39,0-8.04,3.66-8.04,8.77l.73,79.69S40.94,12.52,38.75,8.14c-2.19-3.65-7.31-7.31-13.16-7.31H8.77C3.65.82,0,4.48,0,9.6v116.98c0,5.12,3.65,8.77,8.77,8.77h10.24c5.12,0,8.77-3.66,8.77-8.77l-.73-81.88s44.6,79.69,46.06,83.35c2.93,4.39,7.31,7.31,13.16,7.31h15.35c5.12,0,8.77-3.66,8.77-8.77V22.76h186.43c2.93,0,5.12-2.19,5.12-5.12v-8.77c0-2.92-2.19-5.85-5.12-5.85h0Z"/>
      <path class="cls-1" d="M263.2,54.2c9.51,0,16.08,2.93,18.28,8.77.73,2.92,3.66,2.92,6.58,2.92h11.7c2.19,0,4.39-1.46,4.39-4.39,0-13.89-16.81-26.32-40.94-26.32s-40.94,11.7-40.94,30.71c0,13.89,11.7,22.66,25.59,26.32,6.58,1.46,17.55,4.39,22.66,5.85,5.85,1.46,10.97,2.93,10.97,8.04,0,7.31-8.77,10.24-17.55,10.24-8.04,0-16.81-3.66-19.01-9.51-1.46-3.65-3.65-4.39-7.31-4.39h-12.43c-2.19,0-5.12,2.19-5.12,5.12v1.46c0,13.89,19.01,27.78,43.86,27.78,18.28,0,43.14-7.31,43.14-31.44,0-13.89-9.51-23.39-24.13-27.78-6.58-1.46-20.47-5.12-23.39-5.85-5.85-1.46-10.97-2.92-10.97-8.04,0-7.31,6.58-9.51,14.62-9.51h0Z"/>
    </g>
  </g>
</svg>