<?xml version="1.0" encoding="UTF-8"?>
<svg id="Layer_2" data-name="Layer 2" xmlns="http://www.w3.org/2000/svg" viewBox="0 0 635.02 93.66">
  <defs>
    <style>
      .cls-1 {
        fill: #fff;
        fill-rule: evenodd;
      }
    </style>
  </defs>
  <g id="Layer_1-2" data-name="Layer 1">
    <path class="cls-1" d="M0,76.48h57.5v-12.74H18.36L57.57,12.43V0H3.49v12.74h36.56L0,64.79v11.69h0ZM65.75,54.47c0,1.83.08,3.91.23,6.25.74,11.38,6.89,16.98,18.42,16.81,6.14-.1,11.23-2.02,15.29-5.76l.94-.86v5.48h12.62V22.45h-12.54l-.03,23.75c0,1.82-.17,4.1-.5,6.88-.99,8.24-4.79,12.41-11.38,12.51-.65.02-1.31-.03-1.99-.12-5.63-.82-8.45-4.36-8.45-10.61l.05-32.59h-12.64l-.02,32.2h0ZM125.2,76.33h12.32l.02-26.88c0-.8.08-1.59.23-2.37,1.54-7.96,6.3-12.11,14.28-12.46l2.05-.09v-13.54l-3.25.37c-5.88.68-10.11,3.18-12.67,7.47l-.65,1.1v-7.75h-12.32v54.16h0ZM161.28,76.33h12.4V22.11h-12.4v54.21h0ZM161.28,13.7h12.49V.73h-12.49v12.97h0ZM230.24,33.39c-4.73-8.54-11.77-12.79-21.12-12.79-5.18,0-9.91,1.47-14.2,4.38-8.1,5.5-12.15,13.6-12.15,24.3,0,8.54,2.48,15.5,7.46,20.89,4.84,5.25,10.91,7.84,18.2,7.78,5.06-.05,9.64-1.38,13.73-4,4.02-2.57,6.96-5.97,8.83-10.19l1.16-2.62-10.61-5.64-1.44,2.71c-2.72,5.11-6.35,7.73-10.93,7.87-1.74.04-3.45-.31-5.15-1.06-4.51-2.01-7.22-6.21-8.13-12.64-.17-1.22-.27-2.53-.27-3.94,0-4.87,1.34-8.83,4.02-11.92,2.56-2.95,5.68-4.35,9.35-4.22,2.53.09,4.83.89,6.87,2.43,2.05,1.52,3.45,3.47,4.22,5.85l.27.84,11.38-5.25-1.51-2.76h0ZM236.88,76.48h12.64l-.03-24.23c0-1.15.03-2.48.07-3.94.23-7.96,3.3-12.85,9.22-14.7,1.41-.44,2.85-.65,4.31-.59,2.83.1,5.08,1.08,6.76,2.95,1.68,1.87,2.51,4.36,2.51,7.47l.02,33.04h12.17l.02-31.44c0-3.02-.05-5.67-.18-7.98-.25-4.57-1.83-8.29-4.71-11.15-2.97-2.95-6.99-4.62-12.04-4.99-1.01-.09-2-.1-2.98-.07-2.08.07-4.19.44-6.35,1.08-2.93.87-5.38,2.25-7.36,4.15l-1.56,1.48V0h-12.49v76.48h0ZM321.69,76.24h14.63l4.19-14.61h27.68l4.17,14.77h14.89L362.2,0h-15.57l-24.94,76.24h0ZM344.15,48.96l3.3-11.5,3.55-10.79c1.19-3.6,2.41-8.43,3.67-14.49,1.39,6.16,2.6,11.01,3.67,14.54l3.2,10.82,3.15,11.42h-20.55ZM393.84,76.33h12.4V22.11h-12.4v54.21h0ZM393.84,13.7h12.49V.73h-12.49v12.97h0ZM418.28,76.33h12.32l.02-26.88c0-.8.08-1.59.23-2.37,1.54-7.96,6.3-12.11,14.28-12.46l2.05-.09v-13.54l-3.25.37c-5.88.68-10.11,3.18-12.67,7.47l-.65,1.1v-7.75h-12.32v54.16h0ZM453.93,93.66h12.4v-21.63l1.98,1.66c3.5,2.9,7.8,4.35,12.91,4.31,6.29-.03,11.58-2.44,15.89-7.24,4.48-4.97,6.87-11.47,7.17-19.46.03-.58.05-1.17.05-1.76,0-8.62-2.26-15.62-6.76-21.01-4.34-5.22-9.82-7.85-16.43-7.92-5.33-.05-9.64,1.55-12.91,4.83l-1.83,1.85v-4.92h-12.49v71.3h0ZM466.25,48.26c.34-4.96,1.71-8.8,4.11-11.52,2.3-2.58,5.2-3.86,8.75-3.8,3.62.05,6.59,1.48,8.9,4.26,2.38,2.88,3.62,6.74,3.74,11.57.12,5.29-1.07,9.53-3.62,12.69-2.38,2.98-5.43,4.47-9.19,4.45-3.74-.02-6.77-1.41-9.12-4.21-2.43-2.88-3.64-6.72-3.64-11.55,0-.61.02-1.24.07-1.89h0ZM510.54,48.14c-.28,8.64,2.13,15.78,7.24,21.38,5.1,5.6,11.65,8.41,19.63,8.41s14.4-2.64,19.29-7.89c4.96-5.34,7.39-12.39,7.26-21.14-.12-8.61-2.68-15.48-7.66-20.63-4.95-5.1-11.4-7.58-19.38-7.44-7.61.12-13.86,2.67-18.72,7.68-4.84,4.99-7.41,11.54-7.66,19.62h0ZM523.55,48.37c.23-7.75,3.1-12.79,8.6-15.1,1.63-.68,3.32-1.01,5.1-1.01,3.97,0,7.28,1.59,9.91,4.76,2.75,3.33,4.09,7.66,4.01,13-.07,4.9-1.32,8.83-3.79,11.75-2.38,2.81-5.48,4.28-9.29,4.38-4.43.1-7.98-1.41-10.66-4.56-2.73-3.25-4.02-7.64-3.87-13.23h0ZM572.88,76.33h12.32l.02-26.88c0-.8.08-1.59.23-2.37,1.54-7.96,6.3-12.11,14.28-12.46l2.05-.09v-13.54l-3.25.37c-5.88.68-10.11,3.18-12.67,7.47l-.65,1.1v-7.75h-12.32v54.16h0ZM603.56,31.45h7.98l-.02,32.85c0,8.38,4.93,12.53,14.77,12.44,1.54-.02,3.18-.1,4.96-.28l3.77-.38v-10.82l-2.75.35-2.16.21c-.49,0-.87-.02-1.16-.05-3.54-.37-5.31-3.07-5.31-8.13l-.02-26.23h11.16v-8.95h-11.16V3.3h-12.4v19.15h-7.66v9.01h0Z"/>
  </g>
</svg>