<?xml version="1.0" encoding="UTF-8"?>
<svg id="Layer_2" data-name="Layer 2" xmlns="http://www.w3.org/2000/svg" viewBox="0 0 843.61 437.88">
  <defs>
    <style>
      .cls-1 {
        fill: #fff;
      }
    </style>
  </defs>
  <g id="Layer_1-2" data-name="Layer 1">
    <path class="cls-1" d="M644.48,417.2H199.83L29.19,220.33,199.84,22.09h444.59l170,198.91-169.96,196.2ZM655.19,0H189.1L0,219.63l189.11,218.25h466.04l188.45-217.51L655.19,0ZM570.68,168.06c12.38,9.2,15.6,18,15.6,42.66v83.76h-27.37l.03-82.69c0-7.37.21-14.06-3.18-19.13-3.2-4.77-9.49-6.74-14.01-6.53-10.2.43-15.72,7.66-15.72,14.21v94.14h-27.37V114.13h27.37v55.3c5.82-4.65,14.2-7.47,22.96-7.59,8.07-.11,16.38,2.28,21.69,6.21M347.44,254.14c.14-1.53.69-6.51.69-24.15s-.69-25.04-.69-25.19c-.14-9.87-5.31-19.82-16.52-19.82s-16.37,9.95-16.52,19.89c0,.08-.69,7.44-.69,25.12s.68,23.62.69,23.68c.5,9.56,5.11,20.64,16.52,20.64s15.58-10.38,16.52-20.17M330.87,161.87c17.97,0,39.84,8.3,43.72,46.83.36,3.64.78,16.54.78,21.29,0,10.48-.57,19.25-.71,21.28-1.78,28.23-18.13,46.14-43.79,46.14s-42.04-17.61-43.81-46.12c-.12-2.2-.8-10.82-.69-21.29.12-14.39.53-18.89.74-21.35,2.79-30.59,18.3-46.77,43.76-46.77M666.07,213.76c.05-2.66-.22-5.17-.47-8.89-.47-7.14-3.55-19.99-16.67-19.9-11.09.07-15.9,9.02-16.67,19.84-.12,1.73-.12,2.98-.33,8.95h34.14ZM692.69,221.93c.17,5.47.06,14.54.06,14.54h-61.01c-.03,11.07.51,14.32.66,17.27.76,10.25,5.1,20.58,16.44,20.58,13.32,0,15.84-13.6,16.6-19.96.32-2.47.27-4.47.27-4.47h26.25c-1.72,29.91-18.33,47.51-43.12,47.51s-41.44-18.06-43.08-46.14c-.14-2.01-.71-10.8-.71-21.29,0-14.74.45-18.59.74-21.3,3.02-30.78,18.42-46.81,43.05-46.81,12.84,0,23.67,4.99,31.33,14.44,6.62,8.15,10.95,20.83,11.78,32.38.51,7.52.62,11.09.72,13.24M240.35,167.81c.09-.94.14-1.79.14-4.22,0-2.08-.12-3.18-.15-4.17-.35-13.33-7.98-20.79-22.06-20.79h-12.94v50.91h14.27c16.47,0,19.96-13.83,20.74-21.74M267.33,239.06s2.81,44.28,2.81,44.27c.21,6.26,1.37,11.17,1.37,11.17h-27s-1.15-5.08-1.36-11.01l-2.81-41.89c-1.49-21.35-11.28-28.95-19.97-28.95h-15.04l-.02,81.84h-27V115.53h41.8c25.6.31,47.34,12.59,47.47,47.6.09,23-9.49,34.02-16.88,38.46,10.24,5.98,15.4,17.64,16.62,37.47M437.67,184.97c11.51-.08,16.35,9.96,16.49,19.81,0,.1.26,2.47.45,7.71h27.05c-.07-1.79-.15-3.29-.22-4.19-3.08-37.38-25.87-46.45-43.84-46.45-25.43,0-40.94,16.2-43.75,46.79-.23,2.45-.59,6.94-.74,21.34-.11,10.48.56,19.09.69,21.29,1.77,28.53,18.15,46.05,43.79,46.12,26.61.09,41.27-16.13,43.84-46.14.07-1.12.22-1.86.15-2.61h-27.06c-.11,1.99-.26,3.76-.36,5.02-.77,9.99-4.29,20.64-16.49,20.64-11.4,0-15.9-11.52-16.73-20-.5-5.16-.39-9.14-.48-24.31-.14-17.67.42-22.22.69-25.1.95-11.17,5.3-19.84,16.52-19.91"/>
  </g>
</svg>